<svg width="48" height="48" viewBox="0 0 48 48" fill="none" xmlns="http://www.w3.org/2000/svg">
<path d="M32 11C32 9.46458 31.2918 8.15304 30.46 7.14846C30.3056 6.96213 30.1493 6.79223 30 6.63772C29.8507 6.79223 29.6944 6.96213 29.54 7.14846C28.7082 8.15304 28 9.46458 28 11C28 12.5355 28.7082 13.847 29.54 14.8516C29.6477 14.9816 29.7562 15.1041 29.8623 15.2188C30.0362 15.011 30.2193 14.7864 30.3994 14.5459C31.3585 13.2655 32 11.9678 32 11ZM8 29V25H4C2.89543 25 2 24.1046 2 23C2 21.8955 2.89543 21 4 21H8V17C8 15.8955 8.89543 15 10 15C11.1046 15 12 15.8955 12 17V21H16C17.1046 21 18 21.8955 18 23C18 24.1046 17.1046 25 16 25H12V29C12 30.1046 11.1046 31 10 31C8.89543 31 8 30.1046 8 29ZM37 16C36.054 16 34.7576 16.6386 33.4658 17.6026C33.223 17.7838 32.9952 17.9667 32.7852 18.1416C32.8987 18.2465 33.0199 18.3536 33.1484 18.46C34.153 19.2919 35.4646 20 37 20C38.5354 20 39.847 19.2919 40.8516 18.46C41.0377 18.3058 41.2069 18.1492 41.3613 18C41.2069 17.8509 41.0377 17.6942 40.8516 17.5401C39.847 16.7082 38.5354 16 37 16ZM45.665 16.8926C46.1112 17.5635 46.1112 18.4365 45.665 19.1074L44 18L45.665 16.8926ZM36 11C36 11.371 35.9624 11.7377 35.9014 12.0987C36.2626 12.0368 36.6295 12 37 12C39.8044 12 41.9929 13.292 43.4033 14.46C44.1173 15.0513 44.6687 15.6394 45.0439 16.083C45.2326 16.3061 45.3797 16.4961 45.4834 16.6358C45.5352 16.7055 45.5761 16.7633 45.6064 16.8067C45.6217 16.8284 45.6347 16.847 45.6445 16.8614C45.6493 16.8684 45.6537 16.8747 45.6572 16.8799C45.6588 16.8823 45.6598 16.8848 45.6611 16.8867C45.6618 16.8878 45.6634 16.8887 45.6641 16.8897V16.8916C45.6577 16.8967 45.5554 16.9657 44 18C45.5554 19.0343 45.6577 19.1033 45.6641 19.1084V19.1104C45.6634 19.1113 45.6618 19.1122 45.6611 19.1133C45.6598 19.1153 45.6588 19.1178 45.6572 19.1201C45.6537 19.1253 45.6493 19.1317 45.6445 19.1387C45.6347 19.153 45.6217 19.1717 45.6064 19.1934C45.5761 19.2367 45.5352 19.2945 45.4834 19.3643C45.3797 19.504 45.2326 19.694 45.0439 19.917C44.6687 20.3606 44.1173 20.9488 43.4033 21.5401C41.9929 22.7081 39.8044 24 37 24C36.1486 24 35.3544 23.8792 34.6211 23.6807C34.6333 23.8928 34.6418 24.1054 34.6416 24.3184C34.6405 25.7631 34.3547 27.194 33.8008 28.5283C33.4592 29.351 33.0185 30.1263 32.4922 30.8399C32.3961 31.0472 32.2657 31.243 32.0947 31.4141C32.0256 31.4832 31.9501 31.5437 31.874 31.6006C31.725 31.7689 31.5726 31.9345 31.4131 32.0938L31.4141 32.0948C29.7757 33.733 27.2631 35.3532 24.5732 36.833C21.8448 38.3341 18.78 39.7729 15.9248 41.0186C13.0653 42.2661 10.3904 43.3312 8.43164 44.084C7.45168 44.4606 6.64875 44.7594 6.08984 44.9649C5.81035 45.0676 5.59099 45.1472 5.44141 45.2012C5.36696 45.2281 5.30968 45.2487 5.27051 45.2627C5.25101 45.2697 5.23593 45.2756 5.22559 45.2793C5.22041 45.2812 5.2157 45.2822 5.21289 45.2832C5.21168 45.2837 5.21069 45.2839 5.20996 45.2842L5.20898 45.2852C5.20864 45.2852 5.2029 45.2697 4.54004 43.4004L5.20898 45.2852C4.47378 45.5457 3.65311 45.3552 3.1084 44.7969C2.56358 44.2383 2.39371 43.4133 2.67285 42.6846L2.67383 42.6817C2.67452 42.6799 2.67551 42.6771 2.67676 42.6739C2.67937 42.6671 2.68352 42.6564 2.68848 42.6436C2.69836 42.618 2.71241 42.5803 2.73145 42.5313C2.76991 42.4321 2.82708 42.2852 2.90234 42.0938C3.05306 41.7103 3.27703 41.1453 3.57129 40.417C4.15979 38.9604 5.03053 36.8471 6.16211 34.211C6.59784 33.196 7.77409 32.7265 8.78906 33.1621C9.80398 33.5979 10.2736 34.7741 9.83789 35.7891C9.16093 37.3662 8.58087 38.7535 8.09863 39.9199C9.86542 39.2282 12.0376 38.3496 14.3252 37.3516C15.3841 36.8896 16.4643 36.4037 17.5381 35.9014C17.2865 35.6306 16.9747 35.3029 16.5859 34.9141C15.8049 34.133 15.8049 32.867 16.5859 32.086C17.367 31.3049 18.633 31.3049 19.4141 32.086C20.3061 32.978 20.881 33.6179 21.2559 34.0694C21.7278 33.8234 22.1921 33.5771 22.6445 33.3281C24.7775 32.1547 26.5652 31.0085 27.8154 29.9639L27.7314 29.8799C27.7277 29.8762 27.7235 29.8729 27.7197 29.8692C27.716 29.8654 27.7127 29.8612 27.709 29.8574L26.8096 28.958C26.8055 28.954 26.8009 28.9504 26.7969 28.9463C26.7928 28.9422 26.7892 28.9377 26.7852 28.9336L26.2871 28.4356C26.2828 28.4313 26.2777 28.4272 26.2734 28.4229C26.2691 28.4186 26.265 28.4135 26.2607 28.4092L25.6162 27.7647C25.6119 27.7604 25.6068 27.7563 25.6025 27.752C25.5983 27.7477 25.5941 27.7426 25.5898 27.7383L25.1211 27.2696C25.117 27.2655 25.1125 27.2619 25.1084 27.2578C25.1043 27.2538 25.1007 27.2492 25.0967 27.2451L25.0342 27.1826C25.0301 27.1786 25.0256 27.175 25.0215 27.1709C25.0174 27.1669 25.0138 27.1623 25.0098 27.1582L24.7061 26.8545C24.7021 26.8505 24.6973 26.8468 24.6934 26.8428C24.6894 26.8388 24.6856 26.8341 24.6816 26.8301L24.5996 26.7481C24.5957 26.7442 24.5908 26.7403 24.5869 26.7364L24.5752 26.7246C24.5714 26.7209 24.5682 26.7167 24.5645 26.7129L24.3457 26.4942C23.5648 25.7132 23.5648 24.4471 24.3457 23.666C25.1267 22.885 26.3928 22.8851 27.1738 23.666C27.1775 23.6697 27.1818 23.6731 27.1855 23.6768L27.1973 23.6885C27.201 23.6922 27.2043 23.6965 27.208 23.7002C27.2117 23.7039 27.216 23.7072 27.2197 23.711C27.2235 23.7147 27.2267 23.7189 27.2305 23.7227C27.2342 23.7264 27.2385 23.7297 27.2422 23.7334L27.2539 23.7451C27.2576 23.7489 27.2609 23.7531 27.2646 23.7569L27.2764 23.7686C27.2801 23.7723 27.2843 23.7756 27.2881 23.7793L27.3115 23.8028C27.3153 23.8065 27.3185 23.8107 27.3223 23.8145L27.334 23.8262C27.3377 23.8299 27.342 23.8332 27.3457 23.8369L27.4629 23.9541C27.4668 23.9581 27.4707 23.9629 27.4746 23.9668L27.498 23.9903C27.502 23.9942 27.5068 23.998 27.5107 24.002L27.5342 24.0254C27.5382 24.0294 27.5419 24.0341 27.5459 24.0381L27.5576 24.0498C27.5616 24.0538 27.5663 24.0576 27.5703 24.0615L27.582 24.0733C27.586 24.0772 27.5898 24.082 27.5938 24.086C27.5978 24.09 27.6024 24.0937 27.6064 24.0977L27.6182 24.1094C27.6222 24.1134 27.6259 24.1181 27.6299 24.1221C27.6339 24.1261 27.6385 24.1298 27.6426 24.1338C27.6466 24.1378 27.6503 24.1425 27.6543 24.1465C27.6583 24.1505 27.663 24.1542 27.667 24.1582L27.6787 24.1699C27.6827 24.1739 27.6864 24.1786 27.6904 24.1826C27.6944 24.1867 27.6991 24.1903 27.7031 24.1944C27.7071 24.1984 27.7108 24.203 27.7148 24.2071C27.7189 24.2111 27.7235 24.2147 27.7275 24.2188C27.7316 24.2228 27.7352 24.2274 27.7393 24.2315C27.7433 24.2355 27.7479 24.2392 27.752 24.2432L27.7891 24.2803C27.7931 24.2844 27.7967 24.2889 27.8008 24.293C27.8048 24.2971 27.8094 24.3006 27.8135 24.3047L27.8262 24.3174C27.8302 24.3214 27.8339 24.3261 27.8379 24.3301C27.842 24.3342 27.8465 24.3378 27.8506 24.3418C27.8547 24.3459 27.8582 24.3504 27.8623 24.3545L27.875 24.3672C27.8791 24.3713 27.8836 24.3749 27.8877 24.3789L27.9004 24.3916C27.9045 24.3957 27.908 24.4003 27.9121 24.4043C27.9162 24.4084 27.9207 24.412 27.9248 24.416L27.9502 24.4414C27.9543 24.4455 27.9578 24.4501 27.9619 24.4541L27.9746 24.4668C27.9787 24.4709 27.9832 24.4745 27.9873 24.4785L28.0127 24.5039C28.0168 24.508 28.0203 24.5126 28.0244 24.5166L28.0498 24.542C28.0539 24.5461 28.0584 24.5497 28.0625 24.5537L28.1514 24.6426C28.1554 24.6467 28.159 24.6512 28.1631 24.6553L28.2393 24.7315C28.2435 24.7357 28.2487 24.7399 28.2529 24.7442L28.3545 24.8457C28.3588 24.85 28.3629 24.8551 28.3672 24.8594L28.3926 24.8848C28.3968 24.8891 28.402 24.8932 28.4062 24.8975L28.457 24.9483C28.4613 24.9525 28.4654 24.9577 28.4697 24.9619L28.4824 24.9746C28.4867 24.9789 28.4918 24.983 28.4961 24.9873L28.5342 25.0254C28.5385 25.0297 28.5426 25.0348 28.5469 25.0391L28.5596 25.0518C28.5639 25.0561 28.5689 25.0602 28.5732 25.0645L28.5986 25.0899C28.6029 25.0942 28.607 25.0992 28.6113 25.1035L28.624 25.1162C28.6283 25.1205 28.6334 25.1246 28.6377 25.1289L28.6631 25.1543C28.6674 25.1586 28.6715 25.1637 28.6758 25.168C28.6801 25.1723 28.6851 25.1764 28.6895 25.1807L28.7148 25.2061C28.7191 25.2104 28.7232 25.2154 28.7275 25.2198L28.7402 25.2324C28.7445 25.2368 28.7496 25.2408 28.7539 25.2451L28.7666 25.2578C28.7709 25.2621 28.775 25.2672 28.7793 25.2715L28.792 25.2842C28.7963 25.2885 28.8014 25.2926 28.8057 25.2969L28.8311 25.3223C28.8354 25.3266 28.8394 25.3317 28.8438 25.336C28.8481 25.3403 28.8531 25.3443 28.8574 25.3487L28.8828 25.374C28.8871 25.3784 28.8912 25.3834 28.8955 25.3877L28.9082 25.4004C28.9125 25.4047 28.9176 25.4088 28.9219 25.4131L28.9346 25.4258C28.9389 25.4301 28.943 25.4352 28.9473 25.4395L28.96 25.4522C28.9643 25.4565 28.9693 25.4606 28.9736 25.4649L28.9863 25.4776C28.9906 25.4819 28.9947 25.4869 28.999 25.4912L29.0117 25.5039C29.016 25.5082 29.0211 25.5123 29.0254 25.5166L29.0508 25.542C29.0551 25.5463 29.0592 25.5514 29.0635 25.5557L29.0762 25.5684C29.0805 25.5727 29.0855 25.5768 29.0898 25.5811L29.1152 25.6065C29.1195 25.6108 29.1236 25.6158 29.1279 25.6201L29.1406 25.6328C29.1449 25.6371 29.15 25.6412 29.1543 25.6455L29.1797 25.6709C29.184 25.6752 29.1881 25.6803 29.1924 25.6846L29.2178 25.71C29.2221 25.7143 29.2272 25.7184 29.2314 25.7227L29.2695 25.7608C29.2738 25.765 29.278 25.7702 29.2822 25.7744L29.3076 25.7998C29.3119 25.8041 29.317 25.8083 29.3213 25.8125L29.3975 25.8887C29.4017 25.893 29.4059 25.8981 29.4102 25.9024L29.5752 26.0674C29.5793 26.0715 29.5838 26.0751 29.5879 26.0791L29.6514 26.1426C29.6554 26.1467 29.659 26.1512 29.6631 26.1553L29.6885 26.1807C29.6925 26.1848 29.6971 26.1883 29.7012 26.1924L29.7266 26.2178C29.7306 26.2219 29.7342 26.2264 29.7383 26.2305L29.751 26.2432C29.755 26.2473 29.7596 26.2508 29.7637 26.2549L29.7764 26.2676C29.7804 26.2717 29.784 26.2762 29.7881 26.2803L29.8008 26.293C29.8049 26.2971 29.8094 26.3006 29.8135 26.3047L29.8262 26.3174C29.8302 26.3214 29.8339 26.3261 29.8379 26.3301C29.842 26.3342 29.8465 26.3378 29.8506 26.3418L29.8633 26.3545C29.8673 26.3585 29.871 26.3632 29.875 26.3672C29.8791 26.3713 29.8836 26.3749 29.8877 26.3789C29.8918 26.383 29.8953 26.3876 29.8994 26.3916C29.9035 26.3957 29.9081 26.3993 29.9121 26.4033L29.9492 26.4405C29.9532 26.4445 29.9569 26.4491 29.9609 26.4531C29.965 26.4572 29.9696 26.4608 29.9736 26.4649C29.9777 26.4689 29.9813 26.4735 29.9854 26.4776C29.9894 26.4816 29.994 26.4853 29.998 26.4893C30.0021 26.4933 30.0058 26.498 30.0098 26.502C30.0138 26.506 30.0185 26.5097 30.0225 26.5137L30.0342 26.5254C30.0382 26.5294 30.0419 26.5341 30.0459 26.5381C30.0499 26.5421 30.0546 26.5458 30.0586 26.5498C30.0626 26.5539 30.0663 26.5585 30.0703 26.5625C30.0743 26.5665 30.079 26.5703 30.083 26.5742L30.0947 26.586C30.0987 26.59 30.1024 26.5947 30.1064 26.5987L30.1182 26.6104C30.1222 26.6144 30.1269 26.6181 30.1309 26.6221L30.1426 26.6338C30.1466 26.6378 30.1503 26.6425 30.1543 26.6465L30.166 26.6582C30.17 26.6622 30.1747 26.666 30.1787 26.6699L30.2021 26.6934C30.2061 26.6973 30.2099 26.7021 30.2139 26.7061L30.2158 26.708C30.4952 25.9419 30.641 25.1326 30.6416 24.3155C30.6423 23.3961 30.4615 22.4855 30.1104 21.6358C29.9592 21.27 29.776 20.9195 29.5664 20.586C29.329 20.3419 29.1241 20.1157 28.9561 19.917C28.7961 19.7279 28.6674 19.5617 28.5684 19.4307C28.4375 19.3317 28.2716 19.2034 28.083 19.044C27.8687 18.8627 27.6214 18.6397 27.3555 18.378C27.0276 18.1726 26.6832 17.9928 26.3242 17.8438C25.4751 17.4913 24.5649 17.3093 23.6455 17.3086C22.7261 17.3079 21.8155 17.4887 20.9658 17.8399C20.4625 18.0479 20.2805 18.1499 20.1514 18.2403C20.0037 18.3435 19.8394 18.4894 19.4131 18.9151C18.6315 19.6955 17.3654 19.6946 16.585 18.9131C15.8046 18.1315 15.8054 16.8654 16.5869 16.085C16.997 15.6756 17.3875 15.2924 17.8584 14.9629C18.3478 14.6206 18.8488 14.3859 19.4375 14.1426C20.7726 13.5908 22.2038 13.3075 23.6484 13.3086C23.8682 13.3088 24.0878 13.3168 24.3066 13.3301C24.116 12.6103 24 11.8326 24 11C24 8.19563 25.2919 6.00709 26.46 4.5967C27.0513 3.88273 27.6394 3.33129 28.083 2.95608C28.306 2.76743 28.4961 2.62035 28.6357 2.51663C28.7055 2.46484 28.7633 2.42397 28.8066 2.39358C28.8283 2.37836 28.847 2.36529 28.8613 2.35549C28.8684 2.35069 28.8747 2.34628 28.8799 2.3428C28.8823 2.3412 28.8848 2.34021 28.8867 2.33889C28.8878 2.33818 28.8887 2.33659 28.8896 2.33596H28.8916C28.8963 2.34183 28.9548 2.42879 29.7666 3.64944L28.8926 2.33499C29.5635 1.88883 30.4365 1.88883 31.1074 2.33499L30 4.00002C31.0343 2.44466 31.1033 2.34235 31.1084 2.33596H31.1104C31.1113 2.33659 31.1122 2.33818 31.1133 2.33889C31.1152 2.34021 31.1177 2.3412 31.1201 2.3428C31.1253 2.34628 31.1316 2.35069 31.1387 2.35549C31.153 2.36529 31.1717 2.37836 31.1934 2.39358C31.2367 2.42397 31.2945 2.46484 31.3643 2.51663C31.5039 2.62035 31.694 2.76743 31.917 2.95608C32.3606 3.33129 32.9487 3.88273 33.54 4.5967C34.7081 6.00709 36 8.19563 36 11Z" fill="#0A0A0A"/>
</svg>
