<svg width="48" height="48" viewBox="0 0 48 48" fill="none" xmlns="http://www.w3.org/2000/svg">
<path d="M36 14H12V40C12 40.3495 12.1948 40.8666 12.6641 41.3359C13.1334 41.8052 13.6505 42 14 42H34C34.3495 42 34.8666 41.8052 35.3359 41.3359C35.8052 40.8666 36 40.3495 36 40V14ZM18 34V22C18 20.8954 18.8954 20 20 20C21.1046 20 22 20.8954 22 22V34C22 35.1046 21.1046 36 20 36C18.8954 36 18 35.1046 18 34ZM26 34V22C26 20.8954 26.8954 20 28 20C29.1046 20 30 20.8954 30 22V34C30 35.1046 29.1046 36 28 36C26.8954 36 26 35.1046 26 34ZM30 8C30 7.65046 29.8052 7.13337 29.3359 6.66406C28.8666 6.19475 28.3495 6 28 6H20C19.6505 6 19.1334 6.19475 18.6641 6.66406C18.1948 7.13337 18 7.65046 18 8V10H30V8ZM34 10H42C43.1046 10 44 10.8954 44 12C44 13.1046 43.1046 14 42 14H40V40C40 41.6505 39.1948 43.1334 38.1641 44.1641C37.1334 45.1948 35.6505 46 34 46H14C12.3495 46 10.8666 45.1948 9.83594 44.1641C8.80525 43.1334 8 41.6505 8 40V14H6C4.89543 14 4 13.1046 4 12C4 10.8954 4.89543 10 6 10H14V8C14 6.34954 14.8052 4.86663 15.8359 3.83594C16.8666 2.80525 18.3495 2 20 2H28C29.6505 2 31.1334 2.80525 32.1641 3.83594C33.1948 4.86663 34 6.34954 34 8V10Z" fill="#0A0A0A"/>
</svg>
